<?xml version="1.0" encoding="UTF-8"?>
<svg xmlns="http://www.w3.org/2000/svg" id="Layer_1" data-name="Layer 1" viewBox="0 0 24 24">
  <path d="m17.5,6c-1.378,0-2.5,1.121-2.5,2.5s1.122,2.5,2.5,2.5,2.5-1.121,2.5-2.5-1.122-2.5-2.5-2.5Zm0,4c-.827,0-1.5-.673-1.5-1.5s.673-1.5,1.5-1.5,1.5.673,1.5,1.5-.673,1.5-1.5,1.5ZM22.935.278c-.672-.383-1.474-.376-2.144.023-1.064.633-4.842,2.698-8.791,2.698S4.273.935,3.208.302c-.669-.398-1.47-.407-2.144-.023C.398.657,0,1.343,0,2.112v19.772c0,.77.398,1.455,1.065,1.834.672.382,1.474.375,2.144-.023,1.062-.632,4.837-2.695,8.791-2.695s7.729,2.063,8.792,2.695c.341.203.717.305,1.093.305.36,0,.721-.094,1.051-.281.667-.379,1.065-1.064,1.065-1.834V2.112c0-.77-.398-1.455-1.065-1.834Zm-1.632,22.558c-1.119-.665-5.094-2.836-9.303-2.836s-8.184,2.171-9.302,2.836c-.356.212-.781.217-1.138.014-.351-.199-.56-.56-.56-.965v-4.277l5.876-5.876c.944-.945,2.591-.945,3.536,0l11.242,11.242c-.121-.026-.239-.072-.351-.138Zm1.697-.951c0,.282-.101.542-.281.741l-11.601-11.601c-1.322-1.322-3.628-1.322-4.95,0l-5.169,5.169V2.112c0-.405.209-.766.56-.965.356-.204.782-.199,1.138.014,1.12.666,5.099,2.839,9.303,2.839s8.183-2.173,9.302-2.839c.357-.213.782-.217,1.138-.014.351.199.56.56.56.965v19.772Z"/>
</svg>
