<?xml version="1.0" encoding="UTF-8"?>
<svg xmlns="http://www.w3.org/2000/svg" id="Layer_1" data-name="Layer 1" viewBox="0 0 24 24" width="512" height="512"><path d="M18.783,5.236c-.512-.135-.897-.507-1.057-1.021-.785-2.521-3.086-4.216-5.727-4.216S7.058,1.694,6.273,4.216c-.16,.514-.545,.886-1.057,1.021C1.815,6.13-.4,9.446,.063,12.951c.401,3.036,2.79,5.486,5.808,5.96,.377,.059,.757,.089,1.129,.089h4.5v4.5c0,.276,.224,.5,.5,.5s.5-.224,.5-.5v-4.5h4.5c.372,0,.752-.03,1.129-.089,3.018-.474,5.406-2.924,5.808-5.96,.463-3.505-1.752-6.821-5.154-7.715Zm4.163,7.584c-.338,2.559-2.429,4.704-4.971,5.103-.327,.051-.654,.077-.975,.077h-4.5v-2.793l4.354-4.354c.195-.195,.195-.512,0-.707s-.512-.195-.707,0l-3.646,3.646v-5.293c0-.276-.224-.5-.5-.5s-.5,.224-.5,.5v5.293l-3.646-3.646c-.195-.195-.512-.195-.707,0s-.195,.512,0,.707l4.354,4.354v2.793H7c-.32,0-.648-.026-.974-.077-2.542-.398-4.633-2.544-4.972-5.103-.397-3.007,1.501-5.852,4.417-6.617,.84-.221,1.498-.853,1.758-1.69,.653-2.101,2.571-3.513,4.771-3.513s4.118,1.412,4.771,3.513c.26,.838,.917,1.47,1.758,1.69,2.915,.766,4.813,3.61,4.417,6.617Z"/></svg>
